<svg width="13" height="13" viewBox="0 0 13 13" fill="none" xmlns="http://www.w3.org/2000/svg">
<path d="M12.106 5.722C12.106 2.755 9.85703 0.690002 6.62403 0.690002C3.27403 0.690002 0.978027 3.008 0.978027 6.392C0.978027 9.885 3.21303 12.1 6.74003 12.1C7.60203 12.1 8.42903 11.977 9.04403 11.765V10.903C8.61403 11.102 7.69003 11.231 6.75403 11.231C3.82803 11.231 1.94103 9.351 1.94103 6.433C1.94103 3.589 3.86203 1.552 6.53503 1.552C9.27003 1.552 11.143 3.24 11.143 5.708C11.143 7.39 10.589 8.477 9.72703 8.477C9.23503 8.477 8.95503 8.197 8.95503 7.717V3.706H7.92303V4.54H7.81303C7.54703 3.945 6.93203 3.576 6.21303 3.576C4.81303 3.576 3.83503 4.738 3.83503 6.399C3.83503 8.136 4.79203 9.305 6.21403 9.305C7.01403 9.305 7.62903 8.915 7.92303 8.218H8.03303C8.11403 8.888 8.73603 9.366 9.53603 9.366C11.108 9.366 12.106 7.951 12.106 5.723V5.722ZM4.92903 6.426C4.92903 5.229 5.46903 4.519 6.38503 4.519C7.31503 4.519 7.90903 5.257 7.90903 6.426C7.90903 7.595 7.30803 8.34 6.37103 8.34C5.47603 8.34 4.92903 7.615 4.92903 6.426Z" fill="#949FA6"/>
</svg>
