<svg width="10" height="7" viewBox="0 0 10 7" fill="none" xmlns="http://www.w3.org/2000/svg">
<path d="M2 3.5C2 3.36739 2.05268 3.24021 2.14645 3.14645C2.24021 3.05268 2.36739 3 2.5 3H9.5C9.63261 3 9.75979 3.05268 9.85355 3.14645C9.94732 3.24021 10 3.36739 10 3.5C10 3.63261 9.94732 3.75979 9.85355 3.85355C9.75979 3.94732 9.63261 4 9.5 4H2.5C2.36739 4 2.24021 3.94732 2.14645 3.85355C2.05268 3.75979 2 3.63261 2 3.5ZM2 1C2 0.867392 2.05268 0.740215 2.14645 0.646447C2.24021 0.552679 2.36739 0.5 2.5 0.5H9.5C9.63261 0.5 9.75979 0.552679 9.85355 0.646447C9.94732 0.740215 10 0.867392 10 1C10 1.13261 9.94732 1.25979 9.85355 1.35355C9.75979 1.44732 9.63261 1.5 9.5 1.5H2.5C2.36739 1.5 2.24021 1.44732 2.14645 1.35355C2.05268 1.25979 2 1.13261 2 1ZM2 6C2 5.86739 2.05268 5.74021 2.14645 5.64645C2.24021 5.55268 2.36739 5.5 2.5 5.5H9.5C9.63261 5.5 9.75979 5.55268 9.85355 5.64645C9.94732 5.74021 10 5.86739 10 6C10 6.13261 9.94732 6.25979 9.85355 6.35355C9.75979 6.44732 9.63261 6.5 9.5 6.5H2.5C2.36739 6.5 2.24021 6.44732 2.14645 6.35355C2.05268 6.25979 2 6.13261 2 6ZM1 1C1 1.13261 0.947321 1.25979 0.853553 1.35355C0.759785 1.44732 0.632608 1.5 0.5 1.5C0.367392 1.5 0.240215 1.44732 0.146447 1.35355C0.0526785 1.25979 0 1.13261 0 1C0 0.867392 0.0526785 0.740215 0.146447 0.646447C0.240215 0.552679 0.367392 0.5 0.5 0.5C0.632608 0.5 0.759785 0.552679 0.853553 0.646447C0.947321 0.740215 1 0.867392 1 1V1ZM1 3.5C1 3.63261 0.947321 3.75979 0.853553 3.85355C0.759785 3.94732 0.632608 4 0.5 4C0.367392 4 0.240215 3.94732 0.146447 3.85355C0.0526785 3.75979 0 3.63261 0 3.5C0 3.36739 0.0526785 3.24021 0.146447 3.14645C0.240215 3.05268 0.367392 3 0.5 3C0.632608 3 0.759785 3.05268 0.853553 3.14645C0.947321 3.24021 1 3.36739 1 3.5V3.5ZM1 6C1 6.13261 0.947321 6.25979 0.853553 6.35355C0.759785 6.44732 0.632608 6.5 0.5 6.5C0.367392 6.5 0.240215 6.44732 0.146447 6.35355C0.0526785 6.25979 0 6.13261 0 6C0 5.86739 0.0526785 5.74021 0.146447 5.64645C0.240215 5.55268 0.367392 5.5 0.5 5.5C0.632608 5.5 0.759785 5.55268 0.853553 5.64645C0.947321 5.74021 1 5.86739 1 6V6Z" fill="#949FA6"/>
</svg>
