<svg width="16" height="17" viewBox="0 0 16 17" fill="none" xmlns="http://www.w3.org/2000/svg">
<path d="M11.742 10.844C12.7103 9.5227 13.144 7.8845 12.9563 6.25716C12.7686 4.62982 11.9734 3.13335 10.7298 2.06714C9.48611 1.00093 7.88575 0.443613 6.24883 0.506686C4.61192 0.569759 3.05918 1.24857 1.90127 2.40732C0.743349 3.56606 0.0656481 5.11929 0.00374626 6.75624C-0.0581556 8.3932 0.500307 9.99317 1.56741 11.2361C2.6345 12.4789 4.13154 13.2731 5.75902 13.4596C7.38649 13.6461 9.02438 13.2112 10.345 12.242H10.344C10.374 12.282 10.406 12.32 10.442 12.357L14.292 16.207C14.4795 16.3946 14.7339 16.5001 14.9991 16.5002C15.2644 16.5003 15.5189 16.395 15.7065 16.2075C15.8941 16.02 15.9996 15.7656 15.9997 15.5004C15.9998 15.2351 15.8945 14.9806 15.707 14.793L11.857 10.943C11.8212 10.9068 11.7828 10.8734 11.742 10.843V10.844ZM12 7.00001C12 7.72228 11.8577 8.43748 11.5813 9.10477C11.3049 9.77206 10.8998 10.3784 10.3891 10.8891C9.87836 11.3998 9.27205 11.8049 8.60476 12.0813C7.93747 12.3577 7.22227 12.5 6.5 12.5C5.77773 12.5 5.06253 12.3577 4.39524 12.0813C3.72795 11.8049 3.12163 11.3998 2.61091 10.8891C2.10019 10.3784 1.69506 9.77206 1.41866 9.10477C1.14226 8.43748 0.999998 7.72228 0.999998 7.00001C0.999998 5.54132 1.57946 4.14237 2.61091 3.11092C3.64236 2.07947 5.04131 1.50001 6.5 1.50001C7.95869 1.50001 9.35763 2.07947 10.3891 3.11092C11.4205 4.14237 12 5.54132 12 7.00001Z" fill="#949FA6"/>
</svg>
