<svg width="16" height="17" viewBox="0 0 16 17" fill="none" xmlns="http://www.w3.org/2000/svg">
<path d="M3.65374 1.82785C3.5947 1.75191 3.52019 1.6894 3.43514 1.64448C3.35009 1.59955 3.25646 1.57323 3.16046 1.56727C3.06446 1.56132 2.96829 1.57585 2.87833 1.60992C2.78838 1.64398 2.70671 1.6968 2.63874 1.76485L1.60474 2.79985C1.12174 3.28385 0.943738 3.96885 1.15474 4.56985C2.03048 7.05744 3.45503 9.31595 5.32274 11.1779C7.18466 13.0455 9.44317 14.4701 11.9307 15.3459C12.5317 15.5569 13.2167 15.3789 13.7007 14.8959L14.7347 13.8619C14.8028 13.7939 14.8556 13.7122 14.8897 13.6223C14.9237 13.5323 14.9383 13.4361 14.9323 13.3401C14.9264 13.2441 14.9 13.1505 14.8551 13.0654C14.8102 12.9804 14.7477 12.9059 14.6717 12.8469L12.3647 11.0529C12.2836 10.9899 12.1892 10.9463 12.0888 10.9251C11.9883 10.904 11.8843 10.9059 11.7847 10.9309L9.59474 11.4779C9.30242 11.5509 8.99616 11.547 8.70578 11.4666C8.41541 11.3862 8.1508 11.2319 7.93774 11.0189L5.48174 8.56185C5.26851 8.34889 5.11406 8.08433 5.03345 7.79395C4.95284 7.50357 4.9488 7.19726 5.02174 6.90485L5.56974 4.71485C5.59465 4.61525 5.59661 4.51129 5.57547 4.41082C5.55434 4.31034 5.51066 4.21598 5.44774 4.13485L3.65374 1.82785ZM1.88374 1.01085C2.05873 0.835802 2.26897 0.699983 2.50048 0.612414C2.73199 0.524845 2.97948 0.487529 3.22652 0.502946C3.47356 0.518362 3.71449 0.586157 3.93332 0.701829C4.15215 0.817501 4.34386 0.978404 4.49574 1.17385L6.28974 3.47985C6.61874 3.90285 6.73474 4.45385 6.60474 4.97385L6.05774 7.16385C6.02946 7.27728 6.03098 7.3961 6.06217 7.50876C6.09336 7.62143 6.15315 7.72411 6.23574 7.80685L8.69274 10.2639C8.77558 10.3466 8.87843 10.4065 8.99129 10.4377C9.10415 10.4689 9.22316 10.4703 9.33674 10.4419L11.5257 9.89485C11.7824 9.83069 12.0502 9.82571 12.309 9.88028C12.5678 9.93485 12.8109 10.0475 13.0197 10.2099L15.3257 12.0039C16.1547 12.6489 16.2307 13.8739 15.4887 14.6149L14.4547 15.6489C13.7147 16.3889 12.6087 16.7139 11.5777 16.3509C8.93892 15.4224 6.54301 13.9117 4.56774 11.9309C2.58703 9.95587 1.07635 7.56031 0.147739 4.92185C-0.214261 3.89185 0.110739 2.78485 0.850739 2.04485L1.88474 1.01085H1.88374Z" fill="#949FA6"/>
</svg>
