<svg width="6" height="13" viewBox="0 0 6 13" fill="none" xmlns="http://www.w3.org/2000/svg">
<path d="M0 0.5C0 0.367392 0.0526785 0.240215 0.146447 0.146447C0.240215 0.0526784 0.367392 0 0.5 0C1.362 0 2.073 0.287 2.56 0.566C2.734 0.665 2.881 0.764 3 0.852C3.119 0.764 3.266 0.665 3.44 0.566C4.06578 0.201442 4.7758 0.00635782 5.5 0C5.63261 0 5.75979 0.0526784 5.85355 0.146447C5.94732 0.240215 6 0.367392 6 0.5C6 0.632608 5.94732 0.759785 5.85355 0.853553C5.75979 0.947321 5.63261 1 5.5 1C4.862 1 4.323 1.213 3.936 1.434C3.78348 1.5209 3.63773 1.61917 3.5 1.728V6H4C4.13261 6 4.25979 6.05268 4.35355 6.14645C4.44732 6.24021 4.5 6.36739 4.5 6.5C4.5 6.63261 4.44732 6.75979 4.35355 6.85355C4.25979 6.94732 4.13261 7 4 7H3.5V11.272C3.6 11.352 3.748 11.459 3.936 11.566C4.323 11.787 4.862 12 5.5 12C5.63261 12 5.75979 12.0527 5.85355 12.1464C5.94732 12.2402 6 12.3674 6 12.5C6 12.6326 5.94732 12.7598 5.85355 12.8536C5.75979 12.9473 5.63261 13 5.5 13C4.7758 12.9936 4.06578 12.7986 3.44 12.434C3.28801 12.3478 3.14111 12.253 3 12.15C2.85892 12.2534 2.71201 12.3485 2.56 12.435C1.93422 12.7996 1.2242 12.9946 0.5 13.001C0.367392 13.001 0.240215 12.9483 0.146447 12.8546C0.0526785 12.7608 0 12.6336 0 12.501C0 12.3684 0.0526785 12.2412 0.146447 12.1474C0.240215 12.0537 0.367392 12.001 0.5 12.001C1.138 12.001 1.677 11.788 2.064 11.567C2.252 11.46 2.399 11.353 2.5 11.273V7H2C1.86739 7 1.74021 6.94732 1.64645 6.85355C1.55268 6.75979 1.5 6.63261 1.5 6.5C1.5 6.36739 1.55268 6.24021 1.64645 6.14645C1.74021 6.05268 1.86739 6 2 6H2.5V1.728C2.36227 1.61917 2.21652 1.5209 2.064 1.434C1.58924 1.15589 1.05019 1.0063 0.5 1C0.367392 1 0.240215 0.947321 0.146447 0.853553C0.0526785 0.759785 0 0.632608 0 0.5Z" fill="#949FA6"/>
</svg>
